<?xml version="1.0" encoding="iso-8859-1"?>
<!-- Generator: Adobe Illustrator 18.0.0, SVG Export Plug-In . SVG Version: 6.00 Build 0)  -->
<!DOCTYPE svg PUBLIC "-//W3C//DTD SVG 1.1//EN" "http://www.w3.org/Graphics/SVG/1.1/DTD/svg11.dtd">
<svg xmlns="http://www.w3.org/2000/svg" xmlns:xlink="http://www.w3.org/1999/xlink" version="1.1" id="Capa_1" x="0px" y="0px" viewBox="0 0 58 58" style="enable-background:new 0 0 58 58;" xml:space="preserve" width="512px" height="512px">
<g>
	<path d="M31,56h24V32H31V56z M33,34h20v20h-9V41.414l4.293,4.293l1.414-1.414L43,37.586l-6.707,6.707l1.414,1.414L42,41.414V54h-9   V34z" fill="#003366"/>
	<path d="M57,2H1C0.448,2,0,2.447,0,3v44c0,0.553,0.448,1,1,1h27V29h2.586l-6.612-6.611L7.661,36.751C7.471,36.918,7.235,37,7,37   c-0.277,0-0.553-0.114-0.751-0.339c-0.365-0.415-0.325-1.047,0.09-1.412l17.017-14.982c0.396-0.348,0.994-0.329,1.368,0.044   l4.743,4.743l9.794-10.727c0.179-0.196,0.429-0.313,0.694-0.325c0.264-0.006,0.524,0.083,0.72,0.262l12,11   c0.407,0.373,0.435,1.006,0.062,1.413c-0.373,0.406-1.006,0.435-1.413,0.062L40.063,16.414l-9.181,10.054L33.414,29H58V3   C58,2.447,57.552,2,57,2z M16,19.138c-3.071,0-5.569-2.498-5.569-5.568C10.431,10.498,12.929,8,16,8s5.569,2.498,5.569,5.569   C21.569,16.64,19.071,19.138,16,19.138z" fill="#003366"/>
</g>
<g>
</g>
<g>
</g>
<g>
</g>
<g>
</g>
<g>
</g>
<g>
</g>
<g>
</g>
<g>
</g>
<g>
</g>
<g>
</g>
<g>
</g>
<g>
</g>
<g>
</g>
<g>
</g>
<g>
</g>
</svg>
