<?xml version="1.0" encoding="iso-8859-1"?>
<!-- Generator: Adobe Illustrator 19.0.0, SVG Export Plug-In . SVG Version: 6.00 Build 0)  -->
<svg xmlns="http://www.w3.org/2000/svg" xmlns:xlink="http://www.w3.org/1999/xlink" version="1.1" id="Layer_1" x="0px" y="0px" viewBox="0 0 180.523 180.523" style="enable-background:new 0 0 180.523 180.523;" xml:space="preserve" width="512px" height="512px">
<g>
	<g>
		<g>
			<path d="M156.702,20.72l-9.477-18.954c-1.181-2.355-5.035-2.355-6.216,0l-7.316,14.631l-7.316-14.631     c-1.181-2.355-5.035-2.355-6.216,0l-7.315,14.631L105.53,1.766c-1.181-2.355-5.035-2.355-6.216,0l-9.053,18.106L81.208,1.766     c-1.181-2.355-5.035-2.355-6.216,0l-7.315,14.631L60.36,1.766c-1.181-2.355-5.035-2.355-6.216,0l-7.315,14.631L39.513,1.766     c-1.181-2.355-5.035-2.355-6.216,0L23.82,20.72c-1.717,0.207-3.05,1.673-3.05,3.447v152.881c0,1.92,1.554,3.475,3.475,3.475     h132.034c1.92,0,3.475-1.554,3.475-3.475V24.168C159.752,22.393,158.419,20.927,156.702,20.72z M152.803,173.574H27.718V27.177     c0.58-0.336,1.059-0.835,1.371-1.455l7.316-14.631l7.316,14.631c1.181,2.355,5.035,2.355,6.216,0l7.315-14.631l7.316,14.631     c1.181,2.355,5.035,2.355,6.216,0l7.315-14.631l7.316,14.631c0.59,1.178,1.791,1.92,3.108,1.92h3.475     c1.317,0,2.518-0.743,3.108-1.92l7.316-14.631l7.316,14.631c1.181,2.355,5.035,2.355,6.216,0l7.315-14.631l7.316,14.631     c1.181,2.355,5.035,2.355,6.216,0l7.315-14.631l7.316,14.631c0.312,0.621,0.79,1.12,1.371,1.456V173.574z" fill="#003366"/>
			<path d="M86.786,69.337h48.644c1.92,0,3.475-1.554,3.475-3.475c0-1.92-1.554-3.475-3.475-3.475H86.786     c-1.92,0-3.475,1.554-3.475,3.475C83.312,67.783,84.866,69.337,86.786,69.337z" fill="#003366"/>
			<path d="M86.786,86.71h48.644c1.92,0,3.475-1.554,3.475-3.475c0-1.92-1.554-3.475-3.475-3.475H86.786     c-1.92,0-3.475,1.554-3.475,3.475C83.312,85.156,84.866,86.71,86.786,86.71z" fill="#003366"/>
			<path d="M86.786,104.083h48.644c1.92,0,3.475-1.554,3.475-3.475c0-1.92-1.554-3.475-3.475-3.475H86.786     c-1.92,0-3.475,1.554-3.475,3.475C83.312,102.529,84.866,104.083,86.786,104.083z" fill="#003366"/>
			<path d="M86.786,121.456h48.644c1.92,0,3.475-1.554,3.475-3.475c0-1.92-1.554-3.475-3.475-3.475H86.786     c-1.92,0-3.475,1.554-3.475,3.475C83.312,119.902,84.866,121.456,86.786,121.456z" fill="#003366"/>
			<path d="M71.755,72.333c-1.802-0.645-3.797,0.282-4.452,2.083L53.801,111.65l-11.357-5.436c-1.737-0.828-3.807-0.098-4.635,1.635     c-0.828,1.73-0.095,3.804,1.635,4.635l14.815,7.092c0.472,0.224,0.987,0.339,1.5,0.339c0.448,0,0.892-0.085,1.317-0.258     c0.906-0.373,1.615-1.109,1.951-2.033l14.811-40.84C74.489,74.98,73.56,72.988,71.755,72.333z" fill="#003366"/>
			<path d="M138.905,128.405H83.312c-1.92,0-3.475,1.554-3.475,3.475v20.847c0,1.92,1.554,3.475,3.475,3.475h55.593     c1.92,0,3.475-1.554,3.475-3.475V131.88C142.379,129.959,140.825,128.405,138.905,128.405z M135.43,149.252H86.786v-13.898     h48.644V149.252z" fill="#003366"/>
		</g>
	</g>
</g>
<g>
</g>
<g>
</g>
<g>
</g>
<g>
</g>
<g>
</g>
<g>
</g>
<g>
</g>
<g>
</g>
<g>
</g>
<g>
</g>
<g>
</g>
<g>
</g>
<g>
</g>
<g>
</g>
<g>
</g>
</svg>
