<?xml version="1.0" encoding="iso-8859-1"?>
<!-- Generator: Adobe Illustrator 19.0.0, SVG Export Plug-In . SVG Version: 6.00 Build 0)  -->
<svg xmlns="http://www.w3.org/2000/svg" xmlns:xlink="http://www.w3.org/1999/xlink" version="1.1" id="Layer_1" x="0px" y="0px" viewBox="0 0 463 463" style="enable-background:new 0 0 463 463;" xml:space="preserve" width="512px" height="512px">
<g>
	<g>
		<g>
			<path d="M351.5,32h-72h-9.214c-3.514-18.205-19.57-32-38.786-32c-19.216,0-35.271,13.795-38.786,32H183.5h-72     C89.72,32,72,49.72,72,71.5v352c0,21.78,17.72,39.5,39.5,39.5h240c21.78,0,39.5-17.72,39.5-39.5v-352     C391,49.72,373.28,32,351.5,32z M175,55.5c0-4.687,3.813-8.5,8.5-8.5h15.999c4.143,0,7.501-3.358,7.501-7.5     c0-13.509,10.991-24.5,24.5-24.5c13.509,0,24.5,10.991,24.5,24.5c0,4.142,3.358,7.5,7.5,7.5h16c4.687,0,8.5,3.813,8.5,8.5v16     c0,4.687-3.813,8.5-8.5,8.5h-96c-4.679,0-8.485-3.8-8.499-8.476c0-0.008,0.001-0.016,0.001-0.024     c0-0.016-0.002-0.032-0.002-0.048V55.5z M183.5,95h96c10.336,0,19.128-6.71,22.266-16H344v337H119V79h42.234     C164.372,88.29,173.164,95,183.5,95z M376,423.5c0,13.509-10.991,24.5-24.5,24.5h-240C97.991,448,87,437.009,87,423.5v-352     C87,57.991,97.991,47,111.5,47h50.097C160.57,49.638,160,52.503,160,55.5V64h-48.5c-4.142,0-7.5,3.358-7.5,7.5v352     c0,4.142,3.358,7.5,7.5,7.5h240c4.142,0,7.5-3.358,7.5-7.5v-352c0-4.142-3.358-7.5-7.5-7.5H303v-8.5     c0-2.997-0.57-5.862-1.597-8.5H351.5c13.509,0,24.5,10.991,24.5,24.5V423.5z" fill="#003366"/>
			<path d="M231.5,55c4.142,0,7.5-3.358,7.5-7.5v-8c0-4.142-3.358-7.5-7.5-7.5c-4.142,0-7.5,3.358-7.5,7.5v8     C224,51.642,227.358,55,231.5,55z" fill="#003366"/>
			<path d="M183.5,159h96c12.958,0,23.5-10.542,23.5-23.5S292.458,112,279.5,112h-96c-12.958,0-23.5,10.542-23.5,23.5     S170.542,159,183.5,159z M183.5,127h96c4.687,0,8.5,3.813,8.5,8.5s-3.813,8.5-8.5,8.5h-96c-4.687,0-8.5-3.813-8.5-8.5     S178.813,127,183.5,127z" fill="#003366"/>
			<path d="M263.5,191c4.142,0,7.5-3.358,7.5-7.5c0-4.142-3.358-7.5-7.5-7.5h-64c-4.142,0-7.5,3.358-7.5,7.5     c0,4.142,3.358,7.5,7.5,7.5H263.5z" fill="#003366"/>
			<path d="M143.5,231h152c4.142,0,7.5-3.358,7.5-7.5c0-4.142-3.358-7.5-7.5-7.5h-152c-4.142,0-7.5,3.358-7.5,7.5     C136,227.642,139.358,231,143.5,231z" fill="#003366"/>
			<path d="M143.5,263h96c4.142,0,7.5-3.358,7.5-7.5c0-4.142-3.358-7.5-7.5-7.5h-96c-4.142,0-7.5,3.358-7.5,7.5     C136,259.642,139.358,263,143.5,263z" fill="#003366"/>
			<path d="M288,255.5c0,4.142,3.358,7.5,7.5,7.5h24c4.142,0,7.5-3.358,7.5-7.5c0-4.142-3.358-7.5-7.5-7.5h-24     C291.358,248,288,251.358,288,255.5z" fill="#003366"/>
			<path d="M143.5,295h152c4.142,0,7.5-3.358,7.5-7.5c0-4.142-3.358-7.5-7.5-7.5h-152c-4.142,0-7.5,3.358-7.5,7.5     C136,291.642,139.358,295,143.5,295z" fill="#003366"/>
			<path d="M143.5,327h96c4.142,0,7.5-3.358,7.5-7.5c0-4.142-3.358-7.5-7.5-7.5h-96c-4.142,0-7.5,3.358-7.5,7.5     C136,323.642,139.358,327,143.5,327z" fill="#003366"/>
			<path d="M319.5,312h-24c-4.142,0-7.5,3.358-7.5,7.5c0,4.142,3.358,7.5,7.5,7.5h24c4.142,0,7.5-3.358,7.5-7.5     C327,315.358,323.642,312,319.5,312z" fill="#003366"/>
			<path d="M143.5,359h152c4.142,0,7.5-3.358,7.5-7.5c0-4.142-3.358-7.5-7.5-7.5h-152c-4.142,0-7.5,3.358-7.5,7.5     C136,355.642,139.358,359,143.5,359z" fill="#003366"/>
			<path d="M239.5,376h-96c-4.142,0-7.5,3.358-7.5,7.5c0,4.142,3.358,7.5,7.5,7.5h96c4.142,0,7.5-3.358,7.5-7.5     C247,379.358,243.642,376,239.5,376z" fill="#003366"/>
			<path d="M319.5,376h-24c-4.142,0-7.5,3.358-7.5,7.5c0,4.142,3.358,7.5,7.5,7.5h24c4.142,0,7.5-3.358,7.5-7.5     C327,379.358,323.642,376,319.5,376z" fill="#003366"/>
		</g>
	</g>
</g>
<g>
</g>
<g>
</g>
<g>
</g>
<g>
</g>
<g>
</g>
<g>
</g>
<g>
</g>
<g>
</g>
<g>
</g>
<g>
</g>
<g>
</g>
<g>
</g>
<g>
</g>
<g>
</g>
<g>
</g>
</svg>
