<?xml version="1.0" encoding="iso-8859-1"?>
<!-- Generator: Adobe Illustrator 16.0.0, SVG Export Plug-In . SVG Version: 6.00 Build 0)  -->
<!DOCTYPE svg PUBLIC "-//W3C//DTD SVG 1.1//EN" "http://www.w3.org/Graphics/SVG/1.1/DTD/svg11.dtd">
<svg xmlns="http://www.w3.org/2000/svg" xmlns:xlink="http://www.w3.org/1999/xlink" version="1.1" id="Capa_1" x="0px" y="0px" width="512px" height="512px" viewBox="0 0 485.211 485.211" style="enable-background:new 0 0 485.211 485.211;" xml:space="preserve">
<g>
	<path d="M366.933,460.957c6.688,5.008,5.325,9.092-3.024,9.092H181.955c-8.352,0-9.714-4.084-3.021-9.092l36.366-27.307   c6.692-5.003,12.144-15.9,12.144-24.255v-15.159c0-8.354,6.814-15.163,15.164-15.163h60.648c8.354,0,15.168,6.81,15.168,15.163   v15.159c0,8.354,5.446,19.252,12.144,24.255L366.933,460.957z M485.211,45.489v288.095c0,16.759-13.563,30.321-30.322,30.321   h-303.26v75.821c0,16.76-13.579,30.322-30.324,30.322H30.327C13.579,470.049,0,456.486,0,439.727V106.141   c0-16.748,13.579-30.325,30.327-30.325h30.324V45.489c0-16.746,13.565-30.327,30.327-30.327h363.911   C471.647,15.163,485.211,28.744,485.211,45.489z M30.327,136.467h90.978v-30.326H30.327V136.467z M30.327,197.118h90.978v-30.324   H30.327V197.118z M60.651,363.905c0-8.377-6.781-15.158-15.161-15.158c-8.382,0-15.163,6.781-15.163,15.158   c0,8.387,6.781,15.168,15.163,15.168C53.87,379.073,60.651,372.292,60.651,363.905z M454.889,75.816   c0-16.764-13.562-30.327-30.327-30.327H121.304c-16.764,0-30.327,13.565-30.327,30.327h30.327   c16.746,0,30.324,13.577,30.324,30.325v212.274h272.933c16.765,0,30.327-13.558,30.327-30.321V75.816z" fill="#003366"/>
</g>
<g>
</g>
<g>
</g>
<g>
</g>
<g>
</g>
<g>
</g>
<g>
</g>
<g>
</g>
<g>
</g>
<g>
</g>
<g>
</g>
<g>
</g>
<g>
</g>
<g>
</g>
<g>
</g>
<g>
</g>
</svg>
