<?xml version="1.0" encoding="iso-8859-1"?>
<!-- Generator: Adobe Illustrator 16.0.0, SVG Export Plug-In . SVG Version: 6.00 Build 0)  -->
<!DOCTYPE svg PUBLIC "-//W3C//DTD SVG 1.1//EN" "http://www.w3.org/Graphics/SVG/1.1/DTD/svg11.dtd">
<svg xmlns="http://www.w3.org/2000/svg" xmlns:xlink="http://www.w3.org/1999/xlink" version="1.1" id="Capa_1" x="0px" y="0px" width="512px" height="512px" viewBox="0 0 30.73 30.73" style="enable-background:new 0 0 30.73 30.73;" xml:space="preserve">
<g>
	<g>
		<circle cx="23.448" cy="21.266" r="1.03" fill="#003366"/>
		<circle cx="28.173" cy="21.266" r="1.03" fill="#003366"/>
		<circle cx="18.216" cy="21.267" r="1.03" fill="#003366"/>
		<circle cx="12.632" cy="21.266" r="1.03" fill="#003366"/>
		<circle cx="7.245" cy="21.169" r="1.03" fill="#003366"/>
		<circle cx="1.882" cy="21.169" r="1.03" fill="#003366"/>
		<circle cx="4.505" cy="19.922" r="0.965" fill="#003366"/>
		<circle cx="9.95" cy="19.797" r="0.965" fill="#003366"/>
		<circle cx="15.445" cy="19.797" r="0.965" fill="#003366"/>
		<circle cx="20.805" cy="19.797" r="0.965" fill="#003366"/>
		<circle cx="25.928" cy="19.609" r="0.965" fill="#003366"/>
		<circle cx="23.447" cy="18.485" r="0.903" fill="#003366"/>
		<circle cx="28.509" cy="18.485" r="0.903" fill="#003366"/>
		<circle cx="18.076" cy="18.381" r="0.902" fill="#003366"/>
		<circle cx="12.633" cy="18.381" r="0.902" fill="#003366"/>
		<circle cx="7.244" cy="18.214" r="0.903" fill="#003366"/>
		<circle cx="2.009" cy="18.026" r="0.903" fill="#003366"/>
		<circle cx="4.512" cy="16.773" r="0.809" fill="#003366"/>
		<circle cx="2.113" cy="15.628" r="0.653" fill="#003366"/>
		<circle cx="4.512" cy="14.452" r="0.524" fill="#003366"/>
		<circle cx="2.289" cy="13.677" r="0.407" fill="#003366"/>
		<circle cx="7.327" cy="13.52" r="0.407" fill="#003366"/>
		<circle cx="12.671" cy="13.52" r="0.407" fill="#003366"/>
		<circle cx="18.215" cy="13.52" r="0.407" fill="#003366"/>
		<circle cx="23.484" cy="13.521" r="0.406" fill="#003366"/>
		<circle cx="28.51" cy="13.677" r="0.407" fill="#003366"/>
		<circle cx="10.027" cy="14.452" r="0.524" fill="#003366"/>
		<circle cx="15.446" cy="14.452" r="0.524" fill="#003366"/>
		<circle cx="20.881" cy="14.452" r="0.524" fill="#003366"/>
		<circle cx="26.137" cy="14.453" r="0.524" fill="#003366"/>
		<circle cx="4.927" cy="12.51" r="0.408" fill="#003366"/>
		<circle cx="2.29" cy="11.982" r="0.316" fill="#003366"/>
		<circle cx="7.367" cy="11.981" r="0.317" fill="#003366"/>
		<circle cx="12.671" cy="11.982" r="0.317" fill="#003366"/>
		<circle cx="18.215" cy="11.981" r="0.317" fill="#003366"/>
		<circle cx="23.448" cy="11.982" r="0.316" fill="#003366"/>
		<circle cx="28.548" cy="12.103" r="0.316" fill="#003366"/>
		<circle cx="10.027" cy="12.706" r="0.408" fill="#003366"/>
		<circle cx="15.482" cy="12.706" r="0.408" fill="#003366"/>
		<circle cx="20.882" cy="12.706" r="0.408" fill="#003366"/>
		<circle cx="25.927" cy="12.706" r="0.408" fill="#003366"/>
		<circle cx="7.366" cy="15.472" r="0.653" fill="#003366"/>
		<circle cx="12.671" cy="15.473" r="0.652" fill="#003366"/>
		<circle cx="18.254" cy="15.473" r="0.652" fill="#003366"/>
		<circle cx="23.484" cy="15.473" r="0.652" fill="#003366"/>
		<circle cx="28.548" cy="15.472" r="0.653" fill="#003366"/>
		<circle cx="10.027" cy="16.773" r="0.809" fill="#003366"/>
		<circle cx="15.331" cy="16.773" r="0.809" fill="#003366"/>
		<circle cx="20.882" cy="16.773" r="0.809" fill="#003366"/>
		<circle cx="26.137" cy="16.773" r="0.809" fill="#003366"/>
		<path d="M21.964,24.486c0,0.818,0.664,1.484,1.483,1.484c0.816,0,1.48-0.666,1.48-1.484c0-0.815-0.664-1.479-1.48-1.479    C22.628,23.006,21.964,23.67,21.964,24.486z" fill="#003366"/>
		<polygon points="24.02,26.191 22.908,26.191 21.6,26.439 21.6,29.047 25.296,29.047 25.238,26.461   " fill="#003366"/>
		<path d="M16.594,24.486c0,0.818,0.665,1.484,1.483,1.484c0.817,0,1.481-0.666,1.481-1.484c0-0.815-0.664-1.479-1.481-1.479    C17.258,23.006,16.594,23.67,16.594,24.486z" fill="#003366"/>
		<polygon points="18.648,26.191 17.538,26.191 16.229,26.461 16.229,29.047 19.925,29.047 19.852,26.461   " fill="#003366"/>
		<circle cx="20.688" cy="22.418" r="1.084" fill="#003366"/>
		<path d="M22.037,25.689c-0.193-0.365-0.327-0.761-0.327-1.203c0-0.289,0.077-0.559,0.167-0.82H21.77h-0.266h-0.4h-0.812h-0.425    h-0.237c0.109,0.252,0.173,0.529,0.173,0.82c0,0.478-0.168,0.914-0.444,1.271h2.679L22.037,25.689z" fill="#003366"/>
		<circle cx="12.632" cy="24.489" r="1.482" fill="#003366"/>
		<polygon points="13.205,26.191 12.094,26.191 10.784,26.461 10.784,29.047 14.481,29.047 14.407,26.461   " fill="#003366"/>
		<circle cx="15.241" cy="22.418" r="1.084" fill="#003366"/>
		<path d="M16.592,25.689c-0.191-0.365-0.328-0.761-0.328-1.203c0-0.289,0.079-0.559,0.168-0.82h-0.106h-0.265h-0.4h-0.812h-0.425    h-0.237c0.11,0.252,0.172,0.529,0.172,0.82c0,0.478-0.167,0.914-0.443,1.271h2.678L16.592,25.689z" fill="#003366"/>
		<circle cx="28.882" cy="24.419" r="1.482" fill="#003366"/>
		<polygon points="30.656,26.4 29.454,26.123 28.343,26.123 27.035,26.42 27.035,28.979 30.73,28.979   " fill="#003366"/>
		<circle cx="26.047" cy="22.351" r="1.084" fill="#003366"/>
		<path d="M27.4,25.689l-0.002-0.068c-0.192-0.362-0.33-0.761-0.33-1.2c0-0.291,0.08-0.562,0.168-0.822h-0.105h-0.266h-0.4h-0.812    h-0.424h-0.236c0.109,0.254,0.171,0.53,0.171,0.821c0,0.478-0.167,0.912-0.442,1.271L27.4,25.689L27.4,25.689z" fill="#003366"/>
		<circle cx="7.328" cy="24.53" r="1.482" fill="#003366"/>
		<polygon points="7.901,26.232 6.79,26.232 5.48,26.461 5.48,29.09 9.177,29.09 9.101,26.461   " fill="#003366"/>
		<circle cx="9.938" cy="22.461" r="1.084" fill="#003366"/>
		<path d="M11.29,25.799l-0.001-0.068c-0.191-0.363-0.327-0.76-0.327-1.201c0-0.291,0.078-0.561,0.167-0.822h-0.106h-0.265h-0.401    H9.543H9.119H8.882c0.109,0.254,0.173,0.531,0.173,0.822c0,0.478-0.168,0.912-0.443,1.271L11.29,25.799L11.29,25.799z" fill="#003366"/>
		<circle cx="1.883" cy="24.53" r="1.482" fill="#003366"/>
		<polygon points="2.456,26.232 1.344,26.232 0,26.461 0.037,29.09 3.732,29.09 3.656,26.461   " fill="#003366"/>
		<circle cx="4.494" cy="22.461" r="1.084" fill="#003366"/>
		<path d="M5.578,23.707H5.312H4.911H4.099H3.675H3.439c0.108,0.254,0.172,0.529,0.172,0.822c0,0.477-0.168,0.911-0.444,1.27h2.679    L5.845,25.73c-0.193-0.363-0.328-0.76-0.328-1.201c0-0.291,0.079-0.561,0.167-0.822H5.578L5.578,23.707z" fill="#003366"/>
		<polygon points="8.142,1.957 22.919,1.957 22.919,8.998 9.437,8.998 9.42,9.314 23.236,9.314 23.236,1.641 7.826,1.641     7.826,4.366 8.142,4.268   " fill="#003366"/>
		<circle cx="8.33" cy="5.375" r="0.939" fill="#003366"/>
		<polygon points="7.801,11.043 7.804,11.104 8.219,11.104 8.219,10.718 8.219,10.676 8.219,9.005 8.455,9.005 8.455,10.676     8.455,10.718 8.455,11.104 8.87,11.104 8.873,11.043 9.248,11.104 9.568,11.104 9.568,10.758 9.191,10.676 9.127,10.676     9.127,9.005 9.127,8.847 9.127,8.634 9.187,8.634 9.273,6.938 10.892,6.1 10.756,5.835 10.795,5.906 12.53,4.913 12.451,4.774     10.72,5.766 10.68,5.689 9.2,6.455 8.671,6.455 8.313,6.871 7.967,6.455 7.207,6.596 7.158,8.284 7.481,8.284 7.498,8.634     7.547,8.634 7.547,8.847 7.547,9.005 7.547,10.676 7.482,10.676 7.106,10.758 7.106,11.104 7.426,11.104   " fill="#003366"/>
	</g>
</g>
<g>
</g>
<g>
</g>
<g>
</g>
<g>
</g>
<g>
</g>
<g>
</g>
<g>
</g>
<g>
</g>
<g>
</g>
<g>
</g>
<g>
</g>
<g>
</g>
<g>
</g>
<g>
</g>
<g>
</g>
</svg>
