<?xml version="1.0" encoding="iso-8859-1"?>
<!-- Generator: Adobe Illustrator 16.0.0, SVG Export Plug-In . SVG Version: 6.00 Build 0)  -->
<!DOCTYPE svg PUBLIC "-//W3C//DTD SVG 1.1//EN" "http://www.w3.org/Graphics/SVG/1.1/DTD/svg11.dtd">
<svg xmlns="http://www.w3.org/2000/svg" xmlns:xlink="http://www.w3.org/1999/xlink" version="1.1" id="Capa_1" x="0px" y="0px" width="512px" height="512px" viewBox="0 0 123.958 123.958" style="enable-background:new 0 0 123.958 123.958;" xml:space="preserve">
<g>
	<g>
		<path d="M16.92,58.474l3.987,3.482c0,0-0.324-6.113,0.082-12.728c0.152,0.006,0.302,0.022,0.458,0.022    c0.49,0,0.97-0.05,1.442-0.124c1.778,6.404,2.842,12.829,2.842,12.829l3.09-4.253l4.908,1.22L27.54,46.984    c2.004-1.722,3.281-4.269,3.281-7.111c0-5.17-4.205-9.377-9.375-9.377c-5.17,0-9.377,4.207-9.377,9.377    c0,3.177,1.593,5.986,4.019,7.684l-5.312,13.418L16.92,58.474z M21.447,35.023c2.673,0,4.849,2.175,4.849,4.85    c0,2.673-2.175,4.849-4.849,4.849c-2.676,0-4.851-2.175-4.851-4.849S18.771,35.023,21.447,35.023z" fill="#003366"/>
		<rect x="42.596" y="33.181" width="20.151" height="4.298" fill="#003366"/>
		<rect x="36.943" y="44.078" width="25.804" height="4.299" fill="#003366"/>
		<rect x="36.943" y="55.481" width="25.804" height="4.298" fill="#003366"/>
		<rect x="12.09" y="68.163" width="51.061" height="4.299" fill="#003366"/>
		<rect x="12.09" y="81.057" width="51.061" height="4.301" fill="#003366"/>
		<rect x="12.09" y="95.298" width="51.061" height="4.3" fill="#003366"/>
		<path d="M108.762,31.168c-0.154-0.093-0.316-0.156-0.477-0.229c-1.299-0.853-2.753-1.48-4.232-1.842l-2.953,2.972l-2.863-3.005    c-0.01,0.003-0.021,0.003-0.029,0.005c-1.42,0.34-2.814,0.929-4.074,1.722c-0.314,0.096-0.625,0.22-0.923,0.388    c-1.835,1.032-3.581,1.232-5.493,0.637c-6.328-1.973-12.224-11.629-13.959-15.179c-1.111-2.286-3.863-3.239-6.15-2.129    c-1.229,0.598-2.055,1.674-2.399,2.894H0v101.124h73.887V32.979c3.029,3.276,6.771,6.271,11.07,7.617    c1.332,0.417,2.673,0.65,4.01,0.72v24.251c0,1.252,0.246,2.418,0.676,3.49c-0.029,0.23-0.069,0.461-0.069,0.699l0.045,44.066    c0.004,3.002,2.437,5.434,5.438,5.434c0.002,0,0.004,0,0.006,0c3.002-0.002,5.436-2.439,5.433-5.443l-0.039-37.814    c0.214,0.012,0.427,0.027,0.642,0.027c0.045,0,0.09-0.004,0.133-0.004l0.035,37.801c0.004,3.002,2.438,5.434,5.439,5.434    c0.001,0,0.003,0,0.004,0c3.004-0.002,5.438-2.439,5.434-5.443l-0.039-43.225c0.287,0.271,0.598,0.523,0.961,0.721    c0.699,0.381,1.451,0.561,2.195,0.561c1.631,0,3.211-0.869,4.047-2.403C132.29,45.601,114.581,34.737,108.762,31.168z     M67.438,25.197v86.878H6.448V23.85h60.758c0.081,0.137,0.165,0.277,0.25,0.421L67.438,25.197z M101.127,55.529h-0.057    l-2.857-3.912l2.857-19.108h0.057l2.857,19.108L101.127,55.529z M113.23,60.748v-13.16    C114.988,50.914,115.382,55.122,113.23,60.748z" fill="#003366"/>
		<circle cx="101.098" cy="16.556" r="11.854" fill="#003366"/>
	</g>
</g>
<g>
</g>
<g>
</g>
<g>
</g>
<g>
</g>
<g>
</g>
<g>
</g>
<g>
</g>
<g>
</g>
<g>
</g>
<g>
</g>
<g>
</g>
<g>
</g>
<g>
</g>
<g>
</g>
<g>
</g>
</svg>
